<svg width="14" height="14" viewBox="0 0 14 14" fill="none" xmlns="http://www.w3.org/2000/svg">
<g clip-path="url(#clip0_13203_49445)">
<path d="M10.6398 5.75422L10.6401 5.75535C10.7342 6.08241 10.6544 6.43555 10.4295 6.69059L10.4291 6.69099L4.82823 13.0278L10.6398 5.75422ZM10.6398 5.75422C10.545 5.42731 10.2881 5.16828 9.95379 5.0784L8.57021 4.70639M10.6398 5.75422L8.57021 4.70639M5.51839 7.16272L4.04791 6.76735C3.74186 6.68506 3.49729 6.45934 3.38679 6.16594L5.51839 7.16272ZM5.51839 7.16272L3.62604 12.3054L3.62594 12.3057L4.11094 12.4842M5.51839 7.16272L3.92249 13.1648L4.19288 12.7244M4.11094 12.4842C4.0777 12.5743 4.11211 12.6751 4.19288 12.7244M4.11094 12.4842L4.13566 12.417L4.13582 12.4165L4.19671 12.251M4.11094 12.4842L4.19671 12.251M4.19288 12.7244C4.27321 12.7738 4.37723 12.7579 4.44065 12.686M4.19288 12.7244L4.44065 12.686M4.44065 12.686L4.49417 12.6254L4.49433 12.6252L4.60942 12.495C4.62001 12.5503 4.61587 12.6083 4.59603 12.6624M4.44065 12.686L4.69198 12.4016L4.59603 12.6624M4.59603 12.6624L4.59594 12.6626L4.59584 12.6629C4.5959 12.6627 4.59596 12.6626 4.59603 12.6624ZM8.57021 4.70639L10.2536 2.05805L10.2538 2.05774C10.4207 1.79479 10.4564 1.46645 10.3457 1.17253L8.57021 4.70639ZM4.19671 12.251C4.14222 12.2682 4.09235 12.2997 4.05343 12.3437M4.19671 12.251L4.05343 12.3437M4.05343 12.3437L4.24049 12.1321L4.05307 12.3441L4.05343 12.3437ZM3.47856 5.28044L3.47873 5.28018L6.55214 0.444453C6.55221 0.444341 6.55228 0.444228 6.55235 0.444116L6.55251 0.443878L6.98866 0.721083L3.47856 5.28044ZM3.47856 5.28044C3.31165 5.54341 3.27597 5.87168 3.38668 6.16565L3.47856 5.28044Z" fill="url(#paint0_linear_13203_49445)" stroke="url(#paint1_linear_13203_49445)" stroke-width="1.03359"/>
<path fill-rule="evenodd" clip-rule="evenodd" d="M10.1434 5.89817C10.0978 5.74082 9.97542 5.61936 9.81961 5.57747L7.75673 5.02282L9.81745 1.78082C9.89819 1.6536 9.91499 1.49508 9.86201 1.35453C9.80928 1.2144 9.69317 1.10832 9.55025 1.0699L7.4998 0.518588C7.30507 0.466229 7.09831 0.548053 6.98866 0.721083L3.91489 5.55738C3.83416 5.68458 3.81735 5.84302 3.87036 5.98365C3.92309 6.12378 4.03918 6.22985 4.1821 6.26828L6.19867 6.81048L4.11094 12.4842C4.0777 12.5743 4.11211 12.6751 4.19288 12.7244C4.27321 12.7738 4.37723 12.7579 4.44065 12.686L10.0419 6.34874C10.1503 6.2259 10.1887 6.05546 10.1434 5.89817Z" fill="#FFC000" stroke="url(#paint2_linear_13203_49445)" stroke-width="0.602926" stroke-linejoin="round"/>
</g>
<defs>
<linearGradient id="paint0_linear_13203_49445" x1="7.00095" y1="0.50293" x2="7.00095" y2="12.7529" gradientUnits="userSpaceOnUse">
<stop stop-color="white"/>
<stop offset="0.0001" stop-color="white"/>
<stop offset="1" stop-color="#FFC000"/>
</linearGradient>
<linearGradient id="paint1_linear_13203_49445" x1="7.00095" y1="0.50293" x2="7.00095" y2="12.7529" gradientUnits="userSpaceOnUse">
<stop stop-opacity="0"/>
<stop offset="1" stop-opacity="0.15"/>
</linearGradient>
<linearGradient id="paint2_linear_13203_49445" x1="7.00095" y1="0.50293" x2="7.00095" y2="12.7529" gradientUnits="userSpaceOnUse">
<stop stop-color="white"/>
<stop offset="0.0001" stop-color="white"/>
<stop offset="1" stop-color="#FFC000"/>
</linearGradient>
<clipPath id="clip0_13203_49445">
<rect width="14" height="14" fill="white"/>
</clipPath>
</defs>
</svg>
