<svg width="262" height="200" viewBox="0 0 262 200" fill="none" xmlns="http://www.w3.org/2000/svg">
<rect width="262" height="200" fill="white"/>
<path d="M59.8351 112.635C61.7381 118.474 68.1356 125.122 87.6115 123.592C90.3082 123.406 91.4015 123.997 91.612 124.337C91.8711 124.782 91.8225 126.143 90.8751 127.641C90.0896 128.864 88.7534 130.046 87.4739 129.9C85.174 129.665 83.1333 131.325 82.8903 133.617C82.6555 135.917 84.3156 137.966 86.6074 138.201C86.9556 138.233 87.3119 138.249 87.6682 138.249C91.6039 138.249 95.4505 135.966 97.9204 132.119C98.7059 130.88 99.208 129.584 99.5724 128.281C105.322 132.232 111.89 135.034 118.984 136.419V144.129C113.372 145.084 108.181 146.744 103.937 149.19C97.2726 153.045 93.6041 158.163 93.6041 163.604C93.6041 164.949 93.8309 166.277 94.2763 167.572C93.8228 166.261 93.596 164.933 93.596 163.604V167.492C93.596 172.707 97.0377 177.922 103.929 181.906C117.728 189.867 140.087 189.867 153.878 181.906C160.77 177.922 164.211 172.707 164.219 167.492V163.604C164.219 164.933 163.985 166.261 163.539 167.572C163.977 166.277 164.203 164.949 164.203 163.604C164.203 158.163 160.535 153.045 153.87 149.19C149.627 146.744 144.436 145.084 138.824 144.129V136.419C162.729 131.779 180.788 110.764 180.788 85.5065C180.788 84.4699 180.699 83.4495 180.521 82.4373C180.707 83.4495 180.788 84.4618 180.788 85.5065V68.8406C198.952 48.6845 206.483 33.1685 202.54 23.8881C200.701 19.5799 196.571 17.0533 191.218 16.9561C191.121 16.9561 191.016 16.948 190.911 16.948C184.959 16.948 177.444 20.0172 171.224 25.7912C170.495 25.2 169.775 24.6088 168.973 24.0501C168.066 23.4103 167.094 22.811 166.098 22.2118C165.92 22.1065 165.774 21.9932 165.596 21.896C165.394 21.7826 165.175 21.6854 164.981 21.572C163.977 21.0052 162.956 20.4545 161.871 19.9443C160.851 19.4584 159.782 19.0131 158.705 18.5758C158.421 18.4624 158.162 18.3328 157.887 18.2275C156.567 17.7093 155.214 17.2396 153.822 16.8023C153.757 16.778 153.692 16.7537 153.619 16.7294C152.202 16.284 150.752 15.8791 149.278 15.5228C149.214 15.5066 149.149 15.4823 149.084 15.4742C147.675 15.1341 146.242 14.8344 144.792 14.5672C144.63 14.5348 144.46 14.4943 144.282 14.4619C142.938 14.2271 141.577 14.0327 140.192 13.8465C139.885 13.8141 139.601 13.7574 139.294 13.7169C137.965 13.5711 136.629 13.4659 135.285 13.3687C134.904 13.3444 134.532 13.2958 134.151 13.2715C132.41 13.1743 130.661 13.1257 128.904 13.1257C127.146 13.1257 125.397 13.1743 123.672 13.2715C123.195 13.2958 122.725 13.3606 122.255 13.393C121.008 13.4821 119.753 13.5792 118.522 13.7169C118.149 13.7574 117.793 13.8303 117.421 13.887C116.109 14.057 114.797 14.2352 113.525 14.4619C113.307 14.4943 113.096 14.551 112.878 14.5915C111.477 14.8506 110.092 15.1422 108.731 15.4661C108.61 15.4985 108.488 15.539 108.359 15.5714C106.942 15.9196 105.549 16.3083 104.188 16.7375C104.075 16.7699 103.978 16.8104 103.864 16.8428C102.52 17.272 101.2 17.7335 99.9125 18.2356C99.6534 18.3409 99.4105 18.4543 99.1513 18.5595C98.05 19.0049 96.9648 19.4584 95.9283 19.9605C94.8269 20.4869 93.7823 21.0457 92.7538 21.6206C92.5676 21.7178 92.3813 21.8069 92.2031 21.9122C92.025 22.0174 91.8711 22.1308 91.693 22.2361C90.705 22.8191 89.7332 23.4265 88.8263 24.0501C87.9355 24.6817 87.1257 25.3295 86.3239 25.9774C86.1701 26.107 86 26.2204 85.8542 26.3499C84.9473 27.1192 84.1051 27.9209 83.3358 28.7388C83.3115 28.7631 83.2872 28.7793 83.2548 28.8117C82.4774 29.6458 81.7728 30.4961 81.1331 31.3626C81.1169 31.3869 81.0926 31.4031 81.0683 31.4355C80.469 32.2696 79.9426 33.1037 79.473 33.9621C79.4325 34.0431 79.3677 34.116 79.3272 34.2051C78.898 34.9987 78.5579 35.8166 78.242 36.6264C78.1935 36.7803 78.1044 36.9341 78.0477 37.088C77.7805 37.8573 77.5942 38.6509 77.4322 39.4364C77.3918 39.647 77.3108 39.8494 77.2622 40.06C77.1002 41.056 77.003 42.0683 77.003 43.0806V43.0887V79.3843C66.9695 86.8183 56.1747 101.452 59.8351 112.635ZM180.78 56.0699V43.0806C180.78 42.0602 180.691 41.056 180.521 40.06C180.48 39.7927 180.375 39.5336 180.318 39.2745C180.148 38.5375 179.995 37.8087 179.743 37.088C179.663 36.8774 179.549 36.6669 179.476 36.4563C179.177 35.6951 178.861 34.942 178.472 34.2051C178.399 34.0755 178.294 33.9459 178.229 33.8083C177.849 33.1361 177.452 32.4559 176.974 31.7999C181.468 27.6456 186.805 25.2891 190.878 25.2891C190.943 25.2891 191 25.2891 191.065 25.2972C194.085 25.3457 194.668 26.7062 194.855 27.1516C195.227 28.0262 197.567 35.4927 180.78 56.0699ZM142.29 182.457C141.075 182.748 139.812 182.91 138.549 183.113C139.812 182.91 141.083 182.74 142.29 182.457ZM160.089 173.152C160.413 172.812 160.673 172.456 160.956 172.091C160.673 172.448 160.413 172.812 160.089 173.152ZM161.563 171.338C161.798 171.006 161.984 170.666 162.187 170.334C161.984 170.666 161.806 171.006 161.563 171.338ZM153.87 178.011C152.939 178.554 151.878 178.966 150.866 179.436C151.87 178.966 152.939 178.545 153.862 178.011C155.498 177.063 156.947 176.043 158.211 174.95C156.964 176.035 155.522 177.055 153.87 178.011ZM158.292 174.893C158.753 174.488 159.166 174.075 159.579 173.662C159.166 174.075 158.753 174.496 158.292 174.893ZM148.428 180.578C147.432 180.959 146.355 181.226 145.319 181.542C146.355 181.226 147.44 180.959 148.428 180.578ZM122.045 183.591C124.28 183.842 126.571 183.971 128.896 183.971C131.22 183.971 133.512 183.842 135.747 183.591C131.228 184.109 126.563 184.109 122.045 183.591ZM94.5192 168.188C94.6974 168.617 94.8593 169.046 95.078 169.476C94.8674 169.046 94.6974 168.617 94.5192 168.188ZM95.6125 170.35C95.8149 170.674 95.9931 171.006 96.2279 171.33C96.0012 171.006 95.8149 170.674 95.6125 170.35ZM106.116 179.047C105.403 178.691 104.601 178.4 103.921 178.011C102.399 177.136 101.071 176.181 99.8882 175.201C101.087 176.197 102.423 177.144 103.937 178.011C104.618 178.4 105.403 178.691 106.116 179.047ZM99.4833 174.877C99.0784 174.529 98.7221 174.164 98.3577 173.792C98.7221 174.164 99.0865 174.529 99.4833 174.877ZM115.501 182.457C116.7 182.748 117.971 182.902 119.21 183.113C117.971 182.902 116.708 182.74 115.501 182.457ZM109.379 180.586C110.286 180.926 111.282 181.169 112.238 181.461C111.282 181.169 110.294 180.934 109.379 180.586ZM77.246 90.1062C78.0639 99.4352 81.3598 108.043 86.4616 115.299C75.9017 116.052 69.0993 114.149 67.755 110.052C66.1921 105.258 70.5974 96.7061 77.246 90.1062Z" fill="white"/>
<path d="M131.309 179.428H131.333C132.661 179.363 133.965 179.258 135.244 179.12C135.657 179.08 136.046 179.088 136.419 179.145C136.84 178.918 137.301 178.764 137.803 178.675L138.905 178.497C139.698 178.375 140.484 178.254 141.245 178.076L141.253 178.068C141.699 177.971 142.152 177.922 142.573 177.962C142.994 177.647 143.456 177.396 143.982 177.234L145.124 176.894C145.699 176.74 146.266 176.57 146.808 176.367C147.132 176.238 147.472 176.157 147.804 176.108C148.145 175.8 148.533 175.541 148.971 175.339L149.894 174.918C150.477 174.658 151.076 174.399 151.602 174.1C152.882 173.363 154.04 172.561 155.279 171.533C155.295 171.516 155.319 171.5 155.352 171.468C155.716 171.16 156.032 170.828 156.348 170.504C156.461 170.383 156.583 170.277 156.712 170.172C156.72 170.156 156.737 170.132 156.753 170.107C156.915 169.929 157.052 169.751 157.198 169.565C157.198 169.565 157.417 169.281 157.425 169.265C157.538 169.136 157.652 169.014 157.765 168.901C157.798 168.836 157.838 168.779 157.878 168.723L158.121 168.318C158.138 168.301 158.324 167.986 158.332 167.969C158.421 167.832 158.51 167.686 158.615 167.564C158.648 167.492 158.68 167.427 158.713 167.362C158.81 167.184 158.866 167.014 158.939 166.836C158.939 166.828 159.069 166.52 159.069 166.504C159.117 166.382 159.182 166.261 159.247 166.139C159.255 166.123 159.255 166.107 159.263 166.091C159.555 165.248 159.692 164.406 159.692 163.572C159.692 159.798 156.818 156.057 151.602 153.053C147.975 150.963 143.415 149.433 138.054 148.534C135.892 148.17 134.313 146.299 134.313 144.096V136.379C134.313 134.233 135.835 132.378 137.949 131.965C160.162 127.665 176.277 108.108 176.277 85.4742C176.277 84.6967 176.204 83.9355 176.075 83.1743C176.034 82.9152 176.002 82.656 176.002 82.405C176.002 81.8705 176.099 81.3603 176.269 80.8744V68.8083C176.269 67.6989 176.682 66.6218 177.419 65.8039C179.144 63.8847 180.739 62.0545 182.205 60.2972C181.258 60.613 180.229 60.6292 179.241 60.281C177.452 59.6332 176.261 57.9407 176.261 56.0457V43.0564C176.261 42.2951 176.188 41.5339 176.059 40.8375C176.034 40.7484 175.921 40.303 175.889 40.2139C175.767 39.6552 175.654 39.0883 175.508 38.651C175.468 38.57 175.289 38.1651 175.257 38.076C175.022 37.4849 174.787 36.8856 174.544 36.424C174.496 36.3512 174.334 36.0758 174.285 35.9948C173.977 35.4442 173.654 34.9016 173.289 34.3671C172.342 33.039 172.22 31.3546 172.852 29.9375C171.37 30.5205 169.653 30.2938 168.357 29.2491C167.718 28.7228 167.07 28.2045 166.357 27.7024C165.547 27.1355 164.673 26.593 163.701 26.018C163.661 25.9937 163.264 25.7508 163.223 25.7184C163.158 25.686 162.81 25.5078 162.754 25.4754C161.83 24.9571 160.899 24.4551 159.903 23.9773C158.972 23.5238 157.984 23.1189 156.988 22.7221C156.939 22.6978 156.291 22.4143 156.235 22.39C155.004 21.9204 153.732 21.475 152.25 20.9972C150.922 20.5761 149.562 20.2036 147.999 19.8068C146.679 19.4828 145.326 19.2156 143.966 18.9565L144.776 14.5349L143.472 18.8512C142.209 18.6244 140.913 18.4463 139.65 18.2843L138.751 18.1628C137.504 18.0171 136.224 17.9118 134.953 17.8227L133.876 17.7255C130.572 17.5393 127.195 17.5393 123.891 17.7255L122.555 17.847C121.364 17.9361 120.182 18.0252 118.603 18.2114L117.971 18.3086C116.732 18.4625 115.493 18.6406 114.197 18.8674C114.157 18.8755 113.728 18.9646 113.679 18.9726C112.359 19.2237 111.039 19.4909 109.436 19.8877C108.1 20.2279 106.788 20.5842 105.217 21.0863C103.961 21.4912 102.73 21.9204 101.321 22.4791C101.273 22.4953 100.876 22.6735 100.819 22.6897C99.8071 23.1108 98.7948 23.5238 97.8473 23.9773C96.8351 24.4551 95.8714 24.9733 94.9725 25.4835L94.3976 25.7913C94.3328 25.8317 94.0413 26.0261 93.9684 26.0585C93.0857 26.593 92.2111 27.1274 91.3851 27.7105C90.5996 28.2531 89.8788 28.828 89.2472 29.3625L88.7613 29.735C87.9839 30.3991 87.2632 31.0874 86.5262 31.8648C85.8703 32.5532 85.2872 33.2739 84.7122 34.0432C84.2264 34.7153 83.7972 35.3956 83.287 36.2864C82.955 36.9099 82.6958 37.5416 82.4691 38.157C82.3881 38.3433 82.3152 38.5214 82.2909 38.5295C82.0885 39.1126 81.9589 39.7119 81.8293 40.3111C81.7969 40.5217 81.7321 40.7241 81.6997 40.797C81.5783 41.5339 81.5054 42.279 81.5054 43.0402V79.3358C81.5054 80.753 80.8333 82.0973 79.6914 82.9395C78.5658 83.7817 77.4645 84.6887 76.3793 85.6604C77.1729 85.4904 78.007 85.5551 78.7925 85.8548C80.4283 86.4459 81.5702 87.9441 81.716 89.6852C82.4529 97.9452 85.3601 105.889 90.138 112.692C91.0692 114.012 91.215 115.745 90.5186 117.202C90.1623 117.964 89.5954 118.595 88.9233 119.041C92.8913 119.122 94.6648 120.677 95.4665 122.005C96.0172 122.928 96.2601 124.037 96.2277 125.236C96.7217 124.701 97.3291 124.28 98.0255 124.029C99.3779 123.543 100.9 123.721 102.107 124.556C107.468 128.24 113.428 130.742 119.826 131.973C121.939 132.386 123.47 134.233 123.47 136.387V144.104C123.47 146.307 121.882 148.178 119.72 148.542C114.359 149.441 109.792 150.972 106.172 153.061C100.965 156.065 98.0822 159.807 98.0822 163.58C98.0822 164.422 98.228 165.265 98.5114 166.099C98.5924 166.309 98.641 166.528 98.6734 166.738L98.7786 166.722L98.7867 166.738C98.8758 166.957 98.9487 167.168 99.054 167.378C99.224 167.694 99.3455 168.026 99.4265 168.358L99.6046 168.269L99.8881 168.731C100.123 169.071 100.309 169.427 100.439 169.808L100.641 169.67L100.989 170.099C101.232 170.358 101.435 170.642 101.605 170.941L101.734 170.828C101.953 171.039 102.172 171.265 102.407 171.468C102.423 171.484 102.439 171.492 102.455 171.508C102.552 171.581 102.65 171.654 102.747 171.727C103.808 172.61 104.957 173.403 106.164 174.116C106.439 174.27 106.747 174.399 107.055 174.537C107.403 174.683 107.751 174.853 108.1 175.015C108.65 175.282 109.112 175.646 109.501 176.084C109.986 176.1 110.497 176.197 110.974 176.383H110.982C111.444 176.561 111.938 176.699 112.424 176.837L113.42 177.136L113.566 177.177C114.125 177.355 114.635 177.63 115.064 177.979C115.534 177.938 116.036 177.971 116.53 178.076C117.323 178.27 118.149 178.392 118.983 178.521L119.931 178.667C120.441 178.748 120.911 178.91 121.34 179.137C121.721 179.088 122.125 179.064 122.547 179.12C124.231 179.307 125.956 179.428 127.697 179.469L128.912 179.477C129.721 179.485 130.515 179.469 131.309 179.428ZM72.0387 108.651C72.1602 109.031 73.715 110.343 78.5496 110.813C76.9138 107.558 75.5938 104.148 74.6139 100.642C72.4679 104.229 71.5933 107.299 72.0387 108.651ZM182.821 32.869C183.128 33.5168 183.396 34.1809 183.679 34.8854C183.752 35.0231 183.93 35.4604 183.987 35.6142C184.294 36.4969 184.505 37.3958 184.732 38.3757C184.813 38.6753 184.886 38.9587 184.95 39.2989C185.129 40.303 185.234 41.3234 185.266 42.3275C189.663 35.3389 190.538 31.4194 190.684 29.7917C188.732 29.8484 185.817 30.8202 182.821 32.869Z" fill="#FF4D00"/>
<path d="M169.214 91.5798C172.356 91.5798 175.749 89.4662 178.892 85.5063C180.317 83.7004 180.017 81.0766 178.219 79.6432C176.414 78.2099 173.79 78.5095 172.356 80.3154C172.122 80.615 171.903 80.8741 171.684 81.1171C172.616 78.8739 174.559 75.5861 178.43 71.4156C198.319 49.988 206.644 33.557 202.53 23.8717C200.692 19.5635 196.562 17.0369 191.209 16.9397C191.112 16.9397 191.006 16.9316 190.901 16.9316C181.847 16.9316 169.093 23.896 162.971 36.9744C161.991 39.0637 162.89 41.5417 164.979 42.5216C167.076 43.4934 169.546 42.6026 170.526 40.5133C174.956 31.0466 184.479 25.2727 190.877 25.2727C190.941 25.2727 190.998 25.2727 191.063 25.2808C194.092 25.3294 194.667 26.6898 194.853 27.1352C195.282 28.1394 198.286 37.7599 172.324 65.7307C164.752 73.8936 161.27 81.8621 163.019 87.0449C163.813 89.4014 165.684 91.0535 168.032 91.4665C168.413 91.5474 168.809 91.5798 169.214 91.5798Z" fill="white"/>
<path d="M167.836 92.5841C165.075 92.0982 162.872 90.1628 161.949 87.4094C160.07 81.8298 163.642 73.4483 171.489 64.9777C197.394 37.0636 193.969 27.9532 193.815 27.5807C193.686 27.273 193.329 26.447 190.867 26.4065C184.85 26.4065 175.748 31.978 171.537 40.9993C170.331 43.5502 167.091 44.7487 164.484 43.5502C161.844 42.3112 160.702 39.1448 161.933 36.5048C168.233 23.0701 181.555 15.8142 190.892 15.8142H191.216C197.046 15.9195 201.541 18.6971 203.557 23.4264C207.865 33.5409 199.459 50.4012 179.255 72.1769C177.303 74.2743 175.886 76.1126 174.849 77.6674C176.242 77.465 177.765 77.8618 178.915 78.7687C181.198 80.5746 181.571 83.9191 179.773 86.2028C176.388 90.4462 172.736 92.6975 169.213 92.6975C168.743 92.6975 168.29 92.6651 167.836 92.5841ZM173.238 81.0119C172.995 81.3278 172.76 81.6112 172.525 81.8703C172.161 82.2914 171.553 82.3724 171.092 82.0809C170.63 81.7812 170.436 81.2063 170.655 80.7042C171.521 78.6149 173.424 75.1813 177.611 70.6626C197.168 49.5913 205.428 33.5652 201.492 24.3253C199.84 20.4463 196.083 18.1707 191.183 18.0817L191.207 16.9641L190.9 18.0817C182.251 18.0817 169.885 24.876 163.99 37.4766C163.277 38.999 163.925 40.813 165.447 41.5337C166.929 42.2221 168.808 41.5337 169.505 40.068C174.153 30.1235 184.016 24.1795 191.07 24.1795H191.078C193.556 24.22 195.184 25.0703 195.896 26.7223C196.641 28.4796 199.03 38.6346 173.149 66.5244C165.974 74.2581 162.5 81.9918 164.087 86.6968C164.743 88.6646 166.298 90.0332 168.217 90.3733C171.213 90.8835 174.768 88.8995 178.016 84.818C179.052 83.498 178.834 81.5869 177.53 80.5341C176.979 80.0969 176.323 79.8701 175.627 79.8701C174.679 79.862 173.813 80.2831 173.238 81.0119Z" fill="#FF671D"/>
<path d="M103.911 181.906C97.0198 177.921 93.5781 172.706 93.5781 167.491V163.604C93.5781 168.819 97.0198 174.034 103.911 178.011C117.71 185.979 140.069 185.979 153.86 178.011C160.752 174.034 164.193 168.819 164.193 163.604V167.491C164.193 172.706 160.752 177.921 153.86 181.906C140.069 189.866 117.71 189.866 103.911 181.906Z" fill="white"/>
<path d="M103.353 182.878C96.3162 178.812 92.4453 173.354 92.4453 167.491V163.596C92.4453 162.981 92.9555 162.479 93.571 162.479C94.1864 162.479 94.6885 162.989 94.6885 163.596C94.6885 168.625 98.1626 173.403 104.463 177.047C110.966 180.805 119.639 182.87 128.879 182.87C138.127 182.87 146.792 180.805 153.294 177.047C159.603 173.403 163.069 168.633 163.069 163.596C163.069 162.981 163.579 162.479 164.194 162.479C164.81 162.479 165.312 162.989 165.312 163.596V167.491C165.312 173.354 161.441 178.812 154.404 182.878C147.569 186.829 138.499 189 128.871 189C119.258 189 110.188 186.821 103.353 182.878ZM154.42 178.982C147.585 182.926 138.515 185.096 128.887 185.096C119.258 185.096 110.188 182.918 103.353 178.982C100.438 177.298 98.0654 175.371 96.2838 173.273C97.8791 176.108 100.665 178.723 104.471 180.918C110.974 184.675 119.647 186.748 128.887 186.748C138.135 186.748 146.8 184.675 153.302 180.918C157.1 178.723 159.878 176.116 161.482 173.281C159.708 175.379 157.327 177.298 154.42 178.982Z" fill="#FF671D"/>
<path d="M103.931 178.011C97.2661 174.164 93.5977 169.046 93.5977 163.604C93.5977 158.162 97.2661 153.044 103.931 149.19C110.596 145.343 119.463 143.221 128.897 143.221C138.331 143.221 147.191 145.343 153.864 149.19C160.528 153.044 164.197 158.162 164.197 163.604C164.197 169.046 160.528 174.156 153.864 178.011C147.199 181.865 138.331 183.979 128.897 183.979C119.463 183.979 110.596 181.857 103.931 178.011Z" fill="white"/>
<path d="M103.365 178.983C96.3441 174.917 92.457 169.459 92.457 163.588C92.457 157.725 96.336 152.267 103.365 148.21C110.2 144.258 119.262 142.088 128.89 142.088C138.519 142.088 147.581 144.266 154.416 148.21C161.453 152.267 165.324 157.725 165.324 163.588C165.324 169.451 161.453 174.917 154.416 178.974C147.573 182.926 138.503 185.097 128.89 185.097C119.262 185.105 110.2 182.926 103.365 178.983ZM104.491 150.161C98.1905 153.797 94.7245 158.567 94.7245 163.588C94.7245 168.617 98.1905 173.395 104.491 177.039C110.994 180.788 119.659 182.853 128.898 182.862C138.122 182.862 146.795 180.788 153.306 177.031C159.615 173.395 163.08 168.625 163.08 163.596C163.08 158.575 159.606 153.797 153.306 150.17C146.803 146.412 138.138 144.347 128.898 144.347C119.659 144.347 110.985 146.404 104.491 150.161Z" fill="#FF671D"/>
<path d="M128.893 114.036C134.375 114.036 138.813 111.469 138.813 108.302V163.693C138.813 166.86 134.375 169.427 128.893 169.427C123.41 169.427 118.973 166.86 118.973 163.693V108.302C118.981 111.469 123.419 114.036 128.893 114.036Z" fill="white"/>
<path d="M117.855 163.701V108.302C117.855 107.679 118.358 107.185 118.973 107.185C119.597 107.185 120.099 107.687 120.099 108.302C120.099 110.529 123.629 112.91 128.885 112.91C134.141 112.91 137.671 110.537 137.671 108.302C137.671 107.679 138.182 107.185 138.797 107.185C139.421 107.185 139.923 107.687 139.923 108.302V163.701C139.923 167.54 135.064 170.552 128.877 170.552C122.706 170.552 117.855 167.54 117.855 163.701ZM128.893 115.153C125.265 115.153 122.107 114.125 120.107 112.497V163.701C120.107 165.92 123.637 168.309 128.893 168.309C134.149 168.309 137.68 165.92 137.68 163.701V112.497C135.687 114.125 132.521 115.153 128.893 115.153Z" fill="#FF671D"/>
<path d="M128.892 137.383C157.551 137.383 180.777 114.149 180.777 85.4981V43.0803C180.777 26.5278 157.551 13.1255 128.892 13.1255C100.241 13.1255 77.0078 26.5278 77.0078 43.0803V85.4981C77.0078 84.4697 77.105 83.4412 77.2831 82.429C77.105 83.4412 77.0078 84.4616 77.0078 85.4981C77.0078 114.149 100.241 137.383 128.892 137.383ZM180.777 85.4981C180.777 84.4616 180.688 83.4412 180.509 82.429C180.688 83.4493 180.777 84.4616 180.777 85.4981Z" fill="white"/>
<path d="M75.8828 85.4982V43.0805C75.8828 25.9449 99.6669 12 128.893 12C158.119 12 181.903 25.9449 181.903 43.0805V85.4982C181.903 114.724 158.119 138.5 128.893 138.5C99.6669 138.5 75.8909 114.732 75.8828 85.4982ZM179.595 85.4982C179.595 85.3768 179.611 85.2634 179.644 85.1581C179.627 84.3159 179.538 83.4737 179.401 82.6234C179.385 82.5586 179.384 82.4939 179.384 82.4291C179.384 82.1619 179.482 81.8946 179.644 81.7002V43.0724C179.644 27.1677 156.872 14.2351 128.885 14.2351C100.898 14.2351 78.126 27.1677 78.126 43.0724V81.7002C78.288 81.8946 78.3851 82.1538 78.3851 82.4291C78.3851 82.4939 78.3851 82.5586 78.3689 82.6234C78.2151 83.579 78.126 84.5346 78.126 85.474V85.4902V85.4982C78.126 113.485 100.898 136.257 128.885 136.257C156.758 136.257 179.457 113.68 179.644 85.8465C179.619 85.7412 179.595 85.6278 179.595 85.4982Z" fill="#FF671D"/>
<path d="M92.2118 64.2568C82.4131 58.5962 77.0117 51.0731 77.0117 43.0803C77.0117 35.0794 82.4131 27.5562 92.2118 21.9038C102.019 16.2432 115.04 13.1335 128.904 13.1335C142.768 13.1335 155.79 16.2432 165.597 21.9038C175.395 27.5562 180.789 35.0794 180.789 43.0803C180.789 51.0731 175.387 58.5962 165.589 64.2568C155.79 69.9093 142.768 73.027 128.904 73.027C115.04 73.027 102.002 69.9174 92.2118 64.2568Z" fill="white"/>
<path d="M91.6534 65.2287C81.4903 59.3657 75.8945 51.4944 75.8945 43.0805C75.8945 34.6585 81.4984 26.7952 91.6534 20.9241C101.614 15.1744 114.846 12 128.905 12C142.955 12 156.179 15.1663 166.156 20.9241C176.319 26.7952 181.907 34.6585 181.915 43.0805C181.915 51.4944 176.311 59.3657 166.156 65.2287C156.187 70.9865 142.955 74.1609 128.905 74.1609C114.838 74.1609 101.614 70.9865 91.6534 65.2287ZM92.7791 22.8676C83.3448 28.3095 78.1458 35.4926 78.1458 43.0805C78.1458 50.6684 83.3448 57.8352 92.7791 63.2852C102.408 68.8486 115.235 71.9178 128.897 71.9178C142.55 71.9178 155.377 68.8486 165.014 63.2852C174.456 57.8433 179.647 50.6684 179.647 43.0805C179.647 35.4926 174.448 28.3176 165.022 22.8676C155.385 17.3123 142.55 14.2432 128.888 14.2432C115.235 14.2432 102.4 17.3123 92.7791 22.8676Z" fill="#FF671D"/>
<path d="M98.9105 60.3862C90.9095 55.7541 86.4961 49.6157 86.4961 43.0806C86.4961 36.5454 90.9095 30.3909 98.9105 25.7749C106.919 21.1509 117.568 18.6082 128.89 18.6082C140.211 18.6082 150.86 21.1509 158.869 25.7749C166.87 30.399 171.283 36.5373 171.283 43.0806C171.283 49.6157 166.87 55.7622 158.869 60.3781C150.86 65.0021 140.211 67.553 128.89 67.553C117.568 67.553 106.919 65.0102 98.9105 60.3862Z" fill="white"/>
<path d="M98.352 61.3579C89.9786 56.5233 85.3789 50.0368 85.3789 43.0805C85.3789 36.1242 89.9867 29.6296 98.352 24.8031C106.531 20.0819 117.374 17.4824 128.89 17.4824C140.414 17.4824 151.257 20.09 159.428 24.8031C167.801 29.6377 172.401 36.1161 172.409 43.0805C172.409 50.0368 167.793 56.5314 159.428 61.3579C151.241 66.0791 140.397 68.6785 128.89 68.6785C117.366 68.6704 106.523 66.0791 98.352 61.3579ZM99.4777 26.7466C91.8331 31.1601 87.6221 36.9502 87.6221 43.0805C87.6221 49.1946 91.8331 55.0009 99.4777 59.4143C107.309 63.9412 117.755 66.4273 128.89 66.4354C140.017 66.4354 150.455 63.9331 158.302 59.4143C165.955 55.0009 170.158 49.2027 170.158 43.0805C170.158 36.9583 165.947 31.1601 158.302 26.7466C150.471 22.2198 140.033 19.7256 128.89 19.7256C117.771 19.7256 107.317 22.2198 99.4777 26.7466Z" fill="#FF671D"/>
<path d="M87.6596 138.249C91.5953 138.249 95.4419 135.966 97.9118 132.119C100.479 128.086 100.803 123.462 98.7621 120.045C97.5474 118.02 94.4701 114.668 86.9632 115.283C76.1036 116.133 69.1231 114.206 67.7545 110.052C65.6895 103.743 73.9495 90.9078 84.1045 84.6075C88.1779 82.0809 91.6601 81.3034 92.9963 82.6153C94.6402 84.2349 97.2882 84.1944 98.8998 82.5667C100.511 80.9228 100.487 78.2828 98.8512 76.6713C94.4863 72.3793 87.5058 72.6952 79.7154 77.5216C69.0583 84.1378 55.8422 100.447 59.8346 112.643C61.7376 118.482 68.1351 125.13 87.611 123.6C90.3077 123.414 91.4009 124.005 91.6115 124.345C91.8706 124.79 91.8301 126.151 90.8746 127.649C90.089 128.872 88.7528 130.054 87.4733 129.908C85.1735 129.673 83.1328 131.333 82.8898 133.625C82.655 135.917 84.3151 137.966 86.6068 138.209C86.9551 138.233 87.3114 138.249 87.6596 138.249Z" fill="white"/>
<path d="M86.4926 139.318C85.0835 139.172 83.8202 138.476 82.9295 137.391C82.0387 136.289 81.6257 134.913 81.7795 133.496C82.0791 130.799 84.3385 128.758 87.0514 128.758C87.2376 128.758 87.4158 128.766 87.6992 128.791C88.3471 128.791 89.2865 128.046 89.9343 127.033C90.6226 125.948 90.6793 125.041 90.7684 125.041H90.7603C90.7603 125.041 89.9181 124.555 87.7073 124.709C85.8043 124.863 83.9579 124.944 82.2249 124.944C66.0611 124.936 60.5544 118.441 58.7728 112.991C54.6023 100.245 68.1585 83.3522 79.1233 76.5579C87.3186 71.4885 94.9551 71.2698 99.6358 75.8696C100.64 76.8575 101.207 78.1775 101.215 79.5947C101.231 81.0119 100.689 82.348 99.6925 83.3603C97.7166 85.3686 94.2182 85.3929 92.2018 83.4251C92.0074 83.2226 91.6106 83.1173 91.0842 83.1173C89.5375 83.1173 87.2133 84.0081 84.6948 85.563C75.0905 91.5232 66.9438 103.929 68.8307 109.703C69.9725 113.234 76.7101 114.951 86.8732 114.165C95.0361 113.493 98.4049 117.283 99.7249 119.47C101.992 123.251 101.644 128.329 98.8503 132.734C96.1941 136.897 92.0074 139.383 87.6587 139.383C87.27 139.375 86.8813 139.35 86.4926 139.318ZM87.0595 116.4C75.4954 117.299 68.2476 115.153 66.7009 110.4C64.4577 103.557 72.7906 90.3004 83.5206 83.6437C88.096 80.8094 92.0398 80.0968 93.789 81.8054C94.9551 82.9392 96.9553 82.9311 98.0972 81.7731C98.664 81.1981 98.9718 80.4288 98.9718 79.6109C98.9637 78.793 98.6398 78.0317 98.0648 77.473C94.121 73.594 87.5373 73.9827 80.3138 78.469C69.9563 84.8827 57.0966 100.617 60.9108 112.295C63.4536 120.061 72.6449 123.656 87.5454 122.474C90.3473 122.255 91.9831 122.766 92.5905 123.762C93.1897 124.774 92.882 126.612 91.8374 128.248C90.979 129.6 89.4322 131.042 87.7073 131.042C87.6668 131.042 87.4158 131.026 87.3834 131.026C85.6342 130.799 84.2008 132.07 84.0308 133.73C83.8526 135.407 85.0673 136.913 86.7355 137.083C90.6388 137.431 94.5421 135.342 96.9796 131.52C99.32 127.851 99.6439 123.673 97.8218 120.628C96.6476 118.668 94.121 116.336 88.7439 116.336C88.1932 116.328 87.6426 116.344 87.0595 116.4Z" fill="#FF671D"/>
<path d="M198.729 85.9194C198.729 79.7324 196.559 75.3838 193.044 73.3592C192.818 73.2216 192.559 73.1244 192.324 73.011C192.567 73.1244 192.818 73.2216 193.044 73.3592L184.825 68.6138V57.0821L179.432 53.9724L155.623 67.7149V87.8143C153.169 92.989 151.688 98.4957 151.688 103.565C151.688 108.635 153.161 112.441 155.623 114.773V144.047L161.025 147.157L164.701 142.979L165.632 141.918L172.929 133.625L180.322 133.496L181.156 133.479L184.833 133.415V115.421C192.858 108.043 198.729 96.0825 198.729 85.9194Z" fill="white"/>
<path d="M159.843 149.19L154.45 146.072C153.729 145.659 153.276 144.882 153.276 144.047V115.72C150.7 112.829 149.34 108.651 149.34 103.565C149.34 98.4795 150.7 92.8594 153.276 87.296V67.7229C153.276 66.8888 153.721 66.1114 154.45 65.6984L178.258 51.956C178.979 51.5349 179.878 51.5349 180.607 51.956L186 55.0656C186.721 55.4867 187.174 56.256 187.174 57.0901V67.2695L194.203 71.3266C194.203 71.3266 194.219 71.3347 194.228 71.3347C198.649 73.8856 201.079 79.0684 201.079 85.9274C201.079 96.2444 195.531 108.367 187.174 116.433V133.415C187.174 134.694 186.154 135.731 184.874 135.755L174.007 135.957L162.791 148.704C162.329 149.222 161.681 149.497 161.033 149.497C160.62 149.506 160.216 149.4 159.843 149.19ZM182.477 115.421C182.477 114.765 182.753 114.141 183.238 113.696C190.98 106.594 196.382 95.1755 196.382 85.9274C196.382 80.8175 194.778 77.0762 191.855 75.3918C191.774 75.3432 191.685 75.3028 191.588 75.2704L191.328 75.157C191.199 75.0922 191.069 75.0193 190.956 74.9383C190.834 74.914 190.713 74.8897 190.583 74.8493L190.575 74.8411H190.567C190.559 74.833 190.551 74.8331 190.543 74.8331C190.527 74.825 190.502 74.8169 190.486 74.8169C189.676 74.5577 188.818 74.4282 187.927 74.4282C187.757 74.4282 187.587 74.4362 187.401 74.4443C187.304 74.4524 187.19 74.4605 187.077 74.4686C186.518 74.5172 185.943 74.6306 185.352 74.7683C184.097 75.076 182.825 74.2905 182.526 73.0353C182.485 72.849 182.461 72.6709 182.461 72.4846C182.461 71.7153 182.85 70.9865 183.473 70.5573C182.842 70.1281 182.461 69.4073 182.461 68.6299V58.4506L179.416 56.6933L157.956 69.0834V87.8224C157.956 88.1706 157.875 88.5188 157.729 88.8266C155.308 93.9284 154.029 99.022 154.029 103.565C154.029 107.8 155.138 111.08 157.235 113.072C157.697 113.518 157.964 114.133 157.964 114.773V142.695L160.523 144.169L171.156 132.078C171.585 131.584 172.217 131.293 172.873 131.285L182.477 131.107V115.421Z" fill="#808080"/>
<path d="M155.621 67.7151L161.023 70.8329V147.157L155.621 144.048V67.7151Z" fill="white"/>
<path d="M160.732 147.668L155.338 144.55C155.152 144.444 155.047 144.25 155.047 144.048V67.7151C155.047 67.5126 155.16 67.3102 155.338 67.213C155.525 67.1077 155.743 67.1077 155.93 67.213L161.323 70.3227C161.509 70.4279 161.614 70.6223 161.614 70.8328V147.157C161.614 147.368 161.501 147.562 161.323 147.668C161.234 147.716 161.129 147.749 161.031 147.749C160.918 147.749 160.821 147.716 160.732 147.668ZM156.213 68.7273V143.708L160.44 146.145V71.1649L156.213 68.7273Z" fill="#999999"/>
<path d="M179.438 53.9727L184.831 57.0823L161.023 70.8329L155.621 67.7151L179.438 53.9727Z" fill="white"/>
<path d="M160.732 71.3349L155.338 68.2253C155.152 68.12 155.047 67.9256 155.047 67.7151C155.047 67.5126 155.16 67.3102 155.338 67.213L179.147 53.4706C179.333 53.3653 179.552 53.3653 179.73 53.4706L185.123 56.5802C185.309 56.6855 185.415 56.8798 185.415 57.0823C185.415 57.2848 185.301 57.4872 185.123 57.5925L161.315 71.3349C161.226 71.3916 161.12 71.4159 161.023 71.4159C160.918 71.4159 160.821 71.3916 160.732 71.3349ZM179.438 54.6448L156.804 67.707L161.031 70.1445L183.657 57.0742L179.438 54.6448Z" fill="#999999"/>
<path d="M161.02 147.157L172.924 133.625L184.828 133.415V57.0823L161.02 70.8328V147.157Z" fill="white"/>
<path d="M160.81 147.708C160.584 147.619 160.43 147.4 160.43 147.157V70.8328C160.43 70.6223 160.543 70.4279 160.721 70.3226L184.53 56.5802C184.716 56.4749 184.935 56.4749 185.121 56.5802C185.307 56.6855 185.412 56.8798 185.412 57.0823V133.415C185.412 133.731 185.153 133.99 184.837 133.998L173.192 134.208L161.458 147.538C161.345 147.667 161.183 147.74 161.021 147.74C160.948 147.748 160.883 147.732 160.81 147.708ZM184.238 58.0945L161.604 71.1648V145.602L172.48 133.237C172.593 133.115 172.747 133.042 172.909 133.034L184.238 132.832V58.0945Z" fill="#999999"/>
<path d="M175.758 56.7664L160.477 65.5852L164.704 68.0227L179.985 59.2039L175.758 56.7664Z" fill="#999999"/>
<path d="M171.098 69.9583C176.451 66.8649 181.302 66.5733 184.808 68.5979L193.052 73.3595C189.546 71.335 184.695 71.6265 179.342 74.72C168.628 80.9069 159.939 95.9451 159.939 108.319C159.939 114.506 162.109 118.846 165.624 120.879L157.38 116.117C153.874 114.093 151.695 109.744 151.695 103.565C151.695 91.1915 160.385 76.1453 171.098 69.9583Z" fill="white"/>
<path d="M165.326 121.381L157.082 116.628C153.235 114.401 151.105 109.76 151.105 103.557C151.105 91.0215 159.94 75.7242 170.8 69.4562C176.137 66.379 181.287 65.9012 185.101 68.0958L193.337 72.8574C193.62 73.0194 193.718 73.3838 193.556 73.6592C193.394 73.9345 193.029 74.0317 192.754 73.8697L192.746 73.8616C189.296 71.8776 184.583 72.3635 179.627 75.2221C169.091 81.3037 160.524 96.1476 160.524 108.311C160.524 114.077 162.435 118.353 165.909 120.361H165.917C166.192 120.523 166.289 120.879 166.127 121.163C166.014 121.349 165.82 121.454 165.617 121.454C165.52 121.462 165.423 121.43 165.326 121.381ZM188.664 71.497L184.518 69.108C181.068 67.124 176.347 67.6018 171.391 70.4685C160.856 76.5502 152.288 91.394 152.288 103.557C152.288 109.323 154.199 113.607 157.681 115.607L161.803 117.988C160.208 115.534 159.357 112.238 159.357 108.319C159.357 95.775 168.192 80.4777 179.044 74.2098C182.178 72.4039 185.198 71.4889 188 71.4889C188.227 71.4889 188.446 71.4889 188.664 71.497Z" fill="#999999"/>
<path d="M159.934 108.319C159.934 114.506 162.104 118.847 165.618 120.879C169.133 122.904 173.984 122.612 179.337 119.519C190.042 113.332 198.732 98.2938 198.732 85.9199C198.732 79.733 196.561 75.3924 193.047 73.3679C189.54 71.3434 184.689 71.6349 179.337 74.7283C168.615 80.9072 159.934 95.9453 159.934 108.319Z" fill="white"/>
<path d="M165.32 121.382C161.474 119.155 159.344 114.522 159.344 108.319C159.344 95.7754 168.179 80.4781 179.03 74.2101C184.375 71.1329 189.525 70.6551 193.331 72.8497C197.186 75.0766 199.308 79.7088 199.308 85.9119C199.308 98.4477 190.481 113.753 179.621 120.021C176.487 121.827 173.467 122.742 170.665 122.742C168.697 122.75 166.899 122.289 165.32 121.382ZM179.629 75.2305C169.094 81.3122 160.526 96.156 160.526 108.319C160.526 114.085 162.437 118.361 165.919 120.369C169.361 122.353 174.082 121.876 179.046 119.009C189.582 112.927 198.15 98.0752 198.15 85.92C198.15 80.1542 196.239 75.8784 192.765 73.87C191.372 73.0602 189.768 72.6553 188.003 72.6553C185.395 72.6553 182.577 73.5218 179.629 75.2305Z" fill="#999999"/>
<path d="M162.805 106.659C162.805 117.194 170.206 121.462 179.333 116.198C188.459 110.934 195.853 98.1152 195.853 87.5796C195.853 77.0359 188.459 72.7682 179.333 78.0401C170.206 83.3038 162.805 96.1231 162.805 106.659Z" fill="white"/>
<path d="M162.223 106.659C162.223 95.9532 169.762 82.8829 179.034 77.53C181.723 75.9833 184.306 75.1897 186.711 75.1897C192.623 75.1897 196.437 80.0485 196.437 87.5717C196.437 98.2773 188.89 111.348 179.625 116.7C176.937 118.247 174.362 119.033 171.948 119.033C166.037 119.041 162.223 114.182 162.223 106.659Z" fill="#999999"/>
<path d="M165.395 105.169C165.395 114.053 171.63 117.656 179.331 113.219C187.025 108.773 193.268 97.9618 193.268 89.0782C193.268 80.1865 187.033 76.591 179.331 81.0287C171.638 85.4746 165.395 96.2774 165.395 105.169Z" fill="white"/>
<path d="M164.812 105.169C164.812 96.1075 171.194 85.0536 179.041 80.5187C181.316 79.1987 183.511 78.5347 185.56 78.5347C190.605 78.5347 193.86 82.6728 193.86 89.0784C193.86 98.1401 187.479 109.194 179.632 113.729C177.356 115.041 175.162 115.705 173.113 115.705C168.068 115.705 164.812 111.567 164.812 105.169Z" fill="#999999"/>
<path d="M178.607 86.0408L183.733 82.9231C183.838 82.8583 183.968 82.9393 183.96 83.0607L183.166 107.444C183.166 107.485 183.142 107.525 183.11 107.557L178.218 111.728C178.121 111.817 177.967 111.736 177.967 111.607L178.745 93.3777C178.753 93.2319 178.566 93.159 178.477 93.2724L175.546 96.8599C175.457 96.9651 175.295 96.9166 175.279 96.7789L174.688 90.5677C174.688 90.5272 174.696 90.4867 174.728 90.4543L178.575 86.0813C178.583 86.057 178.591 86.0489 178.607 86.0408Z" fill="white"/>
</svg>
